<svg width="50" height="32" viewBox="0 0 50 32" fill="none" xmlns="http://www.w3.org/2000/svg">
<path d="M1.15563 12C1.07029 12 0.995625 11.968 0.931625 11.904C0.867625 11.84 0.835625 11.7653 0.835625 11.68C0.835625 11.6267 0.840958 11.568 0.851625 11.504L4.81963 1.152C4.86229 1.04533 4.92096 0.96 4.99563 0.896C5.07029 0.831999 5.18229 0.799999 5.33163 0.799999H6.41963C6.55829 0.799999 6.66496 0.831999 6.73963 0.896C6.82496 0.96 6.88896 1.04533 6.93163 1.152L10.8836 11.504C10.905 11.568 10.9156 11.6267 10.9156 11.68C10.9156 11.7653 10.8836 11.84 10.8196 11.904C10.7556 11.968 10.681 12 10.5956 12H9.77963C9.65163 12 9.55563 11.968 9.49163 11.904C9.43829 11.84 9.40096 11.7813 9.37963 11.728L8.49963 9.456H3.25163L2.37163 11.728C2.36096 11.7813 2.32363 11.84 2.25963 11.904C2.19563 11.968 2.09963 12 1.97163 12H1.15563ZM3.71563 8.08H8.03563L5.87563 2.4L3.71563 8.08ZM12.9944 12C12.877 12 12.7864 11.968 12.7224 11.904C12.6584 11.8293 12.6264 11.7387 12.6264 11.632V1.184C12.6264 1.06667 12.6584 0.976 12.7224 0.912C12.7864 0.837333 12.877 0.799999 12.9944 0.799999H17.0584C17.8477 0.799999 18.5304 0.927999 19.1064 1.184C19.693 1.44 20.1464 1.824 20.4664 2.336C20.7864 2.83733 20.9464 3.46667 20.9464 4.224C20.9464 4.98133 20.7864 5.61067 20.4664 6.112C20.1464 6.61333 19.693 6.992 19.1064 7.248C18.5304 7.504 17.8477 7.632 17.0584 7.632H14.2264V11.632C14.2264 11.7387 14.189 11.8293 14.1144 11.904C14.0504 11.968 13.9597 12 13.8424 12H12.9944ZM14.2104 6.288H16.9784C17.7677 6.288 18.3597 6.112 18.7544 5.76C19.149 5.408 19.3464 4.896 19.3464 4.224C19.3464 3.56267 19.1544 3.05067 18.7704 2.688C18.3864 2.32533 17.789 2.144 16.9784 2.144H14.2104V6.288ZM23.26 12C23.1427 12 23.052 11.968 22.988 11.904C22.924 11.8293 22.892 11.7387 22.892 11.632V1.184C22.892 1.06667 22.924 0.976 22.988 0.912C23.052 0.837333 23.1427 0.799999 23.26 0.799999H27.324C28.1133 0.799999 28.796 0.927999 29.372 1.184C29.9587 1.44 30.412 1.824 30.732 2.336C31.052 2.83733 31.212 3.46667 31.212 4.224C31.212 4.98133 31.052 5.61067 30.732 6.112C30.412 6.61333 29.9587 6.992 29.372 7.248C28.796 7.504 28.1133 7.632 27.324 7.632H24.492V11.632C24.492 11.7387 24.4547 11.8293 24.38 11.904C24.316 11.968 24.2253 12 24.108 12H23.26ZM24.476 6.288H27.244C28.0333 6.288 28.6253 6.112 29.02 5.76C29.4147 5.408 29.612 4.896 29.612 4.224C29.612 3.56267 29.42 3.05067 29.036 2.688C28.652 2.32533 28.0547 2.144 27.244 2.144H24.476V6.288ZM33.5256 12C33.4083 12 33.3176 11.968 33.2536 11.904C33.1896 11.8293 33.1576 11.7387 33.1576 11.632V1.168C33.1576 1.06133 33.1896 0.976 33.2536 0.912C33.3176 0.837333 33.4083 0.799999 33.5256 0.799999H34.3736C34.4803 0.799999 34.5656 0.837333 34.6296 0.912C34.6936 0.976 34.7256 1.06133 34.7256 1.168V10.608H40.0536C40.171 10.608 40.2616 10.6453 40.3256 10.72C40.3896 10.784 40.4216 10.8747 40.4216 10.992V11.632C40.4216 11.7387 40.3896 11.8293 40.3256 11.904C40.2616 11.968 40.171 12 40.0536 12H33.5256ZM42.5413 12C42.4239 12 42.3333 11.968 42.2693 11.904C42.2053 11.8293 42.1733 11.7387 42.1733 11.632V1.184C42.1733 1.06667 42.2053 0.976 42.2693 0.912C42.3333 0.837333 42.4239 0.799999 42.5413 0.799999H49.1493C49.2666 0.799999 49.3573 0.837333 49.4213 0.912C49.4853 0.976 49.5173 1.06667 49.5173 1.184V1.792C49.5173 1.90933 49.4853 2 49.4213 2.064C49.3573 2.128 49.2666 2.16 49.1493 2.16H43.7093V5.664H48.7973C48.9146 5.664 49.0053 5.70133 49.0693 5.776C49.1333 5.84 49.1653 5.93067 49.1653 6.048V6.64C49.1653 6.74667 49.1333 6.83733 49.0693 6.912C49.0053 6.976 48.9146 7.008 48.7973 7.008H43.7093V10.64H49.2773C49.3946 10.64 49.4853 10.672 49.5493 10.736C49.6133 10.8 49.6453 10.8907 49.6453 11.008V11.632C49.6453 11.7387 49.6133 11.8293 49.5493 11.904C49.4853 11.968 49.3946 12 49.2773 12H42.5413ZM5.5545 31.16C4.6265 31.16 3.84783 31.0213 3.2185 30.744C2.58917 30.456 2.10383 30.088 1.7625 29.64C1.43183 29.1813 1.25583 28.696 1.2345 28.184C1.2345 28.0987 1.2665 28.024 1.3305 27.96C1.40517 27.8853 1.4905 27.848 1.5865 27.848H2.4025C2.5305 27.848 2.6265 27.88 2.6905 27.944C2.7545 28.008 2.79717 28.0827 2.8185 28.168C2.87183 28.424 2.99983 28.68 3.2025 28.936C3.41583 29.1813 3.70917 29.3893 4.0825 29.56C4.4665 29.72 4.95717 29.8 5.5545 29.8C6.47183 29.8 7.14383 29.64 7.5705 29.32C8.00783 28.9893 8.2265 28.552 8.2265 28.008C8.2265 27.6347 8.10917 27.336 7.8745 27.112C7.6505 26.8773 7.30383 26.6693 6.8345 26.488C6.36517 26.3067 5.75717 26.1093 5.0105 25.896C4.23183 25.672 3.5865 25.4267 3.0745 25.16C2.5625 24.8933 2.1785 24.5627 1.9225 24.168C1.67717 23.7733 1.5545 23.272 1.5545 22.664C1.5545 22.088 1.70917 21.576 2.0185 21.128C2.32783 20.6693 2.7705 20.3067 3.3465 20.04C3.93317 19.7733 4.6425 19.64 5.4745 19.64C6.13583 19.64 6.71183 19.7307 7.2025 19.912C7.70383 20.0827 8.11983 20.3173 8.4505 20.616C8.78117 20.904 9.03183 21.2187 9.2025 21.56C9.37317 21.8907 9.46383 22.216 9.4745 22.536C9.4745 22.6107 9.44783 22.6853 9.3945 22.76C9.34117 22.824 9.25583 22.856 9.1385 22.856H8.2905C8.21583 22.856 8.13583 22.8347 8.0505 22.792C7.97583 22.7493 7.91717 22.6693 7.8745 22.552C7.8105 22.1147 7.56517 21.7467 7.1385 21.448C6.71183 21.1493 6.15717 21 5.4745 21C4.78117 21 4.21583 21.1333 3.7785 21.4C3.35183 21.6667 3.1385 22.0827 3.1385 22.648C3.1385 23.0107 3.23983 23.3147 3.4425 23.56C3.64517 23.7947 3.96517 24.0027 4.4025 24.184C4.83983 24.3653 5.4105 24.5573 6.1145 24.76C6.96783 24.9947 7.6665 25.2453 8.2105 25.512C8.7545 25.768 9.1545 26.0933 9.4105 26.488C9.67717 26.872 9.8105 27.368 9.8105 27.976C9.8105 28.648 9.6345 29.224 9.2825 29.704C8.9305 30.1733 8.4345 30.536 7.7945 30.792C7.16517 31.0373 6.4185 31.16 5.5545 31.16ZM14.5986 31C14.492 31 14.4013 30.968 14.3266 30.904C14.2626 30.8293 14.2306 30.7387 14.2306 30.632V21.224H11.1586C11.052 21.224 10.9613 21.192 10.8866 21.128C10.8226 21.0533 10.7906 20.9627 10.7906 20.856V20.184C10.7906 20.0667 10.8226 19.976 10.8866 19.912C10.9613 19.8373 11.052 19.8 11.1586 19.8H18.8706C18.988 19.8 19.0786 19.8373 19.1426 19.912C19.2173 19.976 19.2546 20.0667 19.2546 20.184V20.856C19.2546 20.9627 19.2173 21.0533 19.1426 21.128C19.0786 21.192 18.988 21.224 18.8706 21.224H15.8146V30.632C15.8146 30.7387 15.7773 30.8293 15.7026 30.904C15.6386 30.968 15.548 31 15.4306 31H14.5986ZM24.8299 31.16C23.9232 31.16 23.1445 31.0053 22.4939 30.696C21.8432 30.376 21.3419 29.8907 20.9899 29.24C20.6379 28.5787 20.4405 27.752 20.3979 26.76C20.3872 26.2907 20.3819 25.8427 20.3819 25.416C20.3819 24.9787 20.3872 24.5253 20.3979 24.056C20.4405 23.0747 20.6432 22.2587 21.0059 21.608C21.3792 20.9467 21.8912 20.456 22.5419 20.136C23.2032 19.8053 23.9659 19.64 24.8299 19.64C25.7045 19.64 26.4672 19.8053 27.1179 20.136C27.7792 20.456 28.2965 20.9467 28.6699 21.608C29.0432 22.2587 29.2459 23.0747 29.2779 24.056C29.2992 24.5253 29.3099 24.9787 29.3099 25.416C29.3099 25.8427 29.2992 26.2907 29.2779 26.76C29.2459 27.752 29.0485 28.5787 28.6859 29.24C28.3339 29.8907 27.8325 30.376 27.1819 30.696C26.5312 31.0053 25.7472 31.16 24.8299 31.16ZM24.8299 29.8C25.6512 29.8 26.3179 29.5547 26.8299 29.064C27.3525 28.5733 27.6352 27.7787 27.6779 26.68C27.6992 26.2 27.7099 25.7733 27.7099 25.4C27.7099 25.016 27.6992 24.5893 27.6779 24.12C27.6565 23.384 27.5179 22.7867 27.2619 22.328C27.0165 21.8693 26.6859 21.5333 26.2699 21.32C25.8539 21.1067 25.3739 21 24.8299 21C24.3072 21 23.8379 21.1067 23.4219 21.32C23.0059 21.5333 22.6699 21.8693 22.4139 22.328C22.1685 22.7867 22.0299 23.384 21.9979 24.12C21.9872 24.5893 21.9819 25.016 21.9819 25.4C21.9819 25.7733 21.9872 26.2 21.9979 26.68C22.0405 27.7787 22.3232 28.5733 22.8459 29.064C23.3685 29.5547 24.0299 29.8 24.8299 29.8ZM32.01 31C31.8927 31 31.802 30.968 31.738 30.904C31.674 30.8293 31.642 30.7387 31.642 30.632V20.184C31.642 20.0667 31.674 19.976 31.738 19.912C31.802 19.8373 31.8927 19.8 32.01 19.8H35.914C37.1193 19.8 38.074 20.0827 38.778 20.648C39.482 21.2133 39.834 22.0507 39.834 23.16C39.834 23.9813 39.626 24.6533 39.21 25.176C38.8047 25.688 38.25 26.0453 37.546 26.248L40.01 30.504C40.042 30.568 40.058 30.6267 40.058 30.68C40.058 30.7653 40.0207 30.84 39.946 30.904C39.882 30.968 39.8073 31 39.722 31H38.954C38.7727 31 38.6393 30.952 38.554 30.856C38.4687 30.76 38.394 30.664 38.33 30.568L36.01 26.504H33.21V30.632C33.21 30.7387 33.1727 30.8293 33.098 30.904C33.034 30.968 32.9433 31 32.826 31H32.01ZM33.21 25.144H35.85C36.65 25.144 37.2473 24.9787 37.642 24.648C38.0367 24.3067 38.234 23.8053 38.234 23.144C38.234 22.4933 38.0367 21.9973 37.642 21.656C37.258 21.3147 36.6607 21.144 35.85 21.144H33.21V25.144ZM42.4944 31C42.377 31 42.2864 30.968 42.2224 30.904C42.1584 30.8293 42.1264 30.7387 42.1264 30.632V20.184C42.1264 20.0667 42.1584 19.976 42.2224 19.912C42.2864 19.8373 42.377 19.8 42.4944 19.8H49.1024C49.2197 19.8 49.3104 19.8373 49.3744 19.912C49.4384 19.976 49.4704 20.0667 49.4704 20.184V20.792C49.4704 20.9093 49.4384 21 49.3744 21.064C49.3104 21.128 49.2197 21.16 49.1024 21.16H43.6624V24.664H48.7504C48.8677 24.664 48.9584 24.7013 49.0224 24.776C49.0864 24.84 49.1184 24.9307 49.1184 25.048V25.64C49.1184 25.7467 49.0864 25.8373 49.0224 25.912C48.9584 25.976 48.8677 26.008 48.7504 26.008H43.6624V29.64H49.2304C49.3477 29.64 49.4384 29.672 49.5024 29.736C49.5664 29.8 49.5984 29.8907 49.5984 30.008V30.632C49.5984 30.7387 49.5664 30.8293 49.5024 30.904C49.4384 30.968 49.3477 31 49.2304 31H42.4944Z" fill="black"/>
</svg>
